<svg xmlns="http://www.w3.org/2000/svg" xmlns:xlink="http://www.w3.org/1999/xlink" width="217" zoomAndPan="magnify" viewBox="0 0 162.75 98.249997" height="131" preserveAspectRatio="xMidYMid meet" version="1.0"><defs><g/><clipPath id="8ed2e1a6e9"><path d="M 89.570312 40.542969 L 109.667969 40.542969 L 109.667969 60.640625 L 89.570312 60.640625 Z M 89.570312 40.542969 " clip-rule="nonzero"/></clipPath></defs><g fill="#ffffff" fill-opacity="1"><g transform="translate(73.468167, 47.286433)"><g><path d="M 20.0625 -31.109375 L 20.0625 -24.890625 L 9.34375 -24.890625 L 9.34375 -18.703125 L 19.609375 -18.703125 L 19.609375 -12.484375 L 9.34375 -12.484375 L 9.34375 -6.21875 L 20.0625 -6.21875 L 20.0625 0 L 2.265625 0 L 2.265625 -31.109375 Z M 20.0625 -31.109375 "/></g></g></g><g clip-path="url(#8ed2e1a6e9)"><path fill="#7447e1" d="M 99.789062 60.976562 C 99.789062 55.355469 95.191406 50.761719 89.570312 50.761719 C 95.191406 50.761719 99.789062 46.164062 99.789062 40.542969 C 99.789062 46.164062 104.382812 50.761719 110.003906 50.761719 C 104.382812 50.761719 99.789062 55.355469 99.789062 60.976562 Z M 99.789062 60.976562 " fill-opacity="1" fill-rule="nonzero"/></g><g fill="#ffffff" fill-opacity="1"><g transform="translate(61.952308, 71.404924)"><g><path d="M 3.390625 -19.34375 L 3.390625 -26.546875 L 10.0625 -26.546875 L 10.0625 -19.34375 L 14.140625 -19.34375 L 14.140625 -14.25 L 10.0625 -14.25 L 10.0625 -8.109375 C 10.0625 -6.316406 10.566406 -5.421875 11.578125 -5.421875 C 11.828125 -5.421875 12.085938 -5.472656 12.359375 -5.578125 C 12.640625 -5.679688 12.851562 -5.78125 13 -5.875 L 13.234375 -6.03125 L 14.890625 -0.640625 C 13.460938 0.160156 11.828125 0.5625 9.984375 0.5625 C 8.734375 0.5625 7.65625 0.34375 6.75 -0.09375 C 5.84375 -0.53125 5.15625 -1.117188 4.6875 -1.859375 C 4.226562 -2.609375 3.894531 -3.390625 3.6875 -4.203125 C 3.488281 -5.015625 3.390625 -5.890625 3.390625 -6.828125 L 3.390625 -14.25 L 0.609375 -14.25 L 0.609375 -19.34375 Z M 3.390625 -19.34375 "/></g></g></g><g fill="#ffffff" fill-opacity="1"><g transform="translate(76.845554, 71.404924)"><g><path d="M 21.828125 -8.75 L 7.796875 -8.75 C 7.796875 -7.394531 8.234375 -6.390625 9.109375 -5.734375 C 9.992188 -5.078125 10.953125 -4.75 11.984375 -4.75 C 13.066406 -4.75 13.921875 -4.894531 14.546875 -5.1875 C 15.179688 -5.476562 15.898438 -6.050781 16.703125 -6.90625 L 21.53125 -4.484375 C 19.519531 -1.117188 16.175781 0.5625 11.5 0.5625 C 8.582031 0.5625 6.078125 -0.429688 3.984375 -2.421875 C 1.898438 -4.421875 0.859375 -6.828125 0.859375 -9.640625 C 0.859375 -12.460938 1.898438 -14.878906 3.984375 -16.890625 C 6.078125 -18.898438 8.582031 -19.90625 11.5 -19.90625 C 14.5625 -19.90625 17.054688 -19.019531 18.984375 -17.25 C 20.910156 -15.476562 21.875 -12.945312 21.875 -9.65625 C 21.875 -9.195312 21.859375 -8.894531 21.828125 -8.75 Z M 8 -12.4375 L 15.34375 -12.4375 C 15.195312 -13.445312 14.800781 -14.222656 14.15625 -14.765625 C 13.519531 -15.304688 12.695312 -15.578125 11.6875 -15.578125 C 10.582031 -15.578125 9.703125 -15.285156 9.046875 -14.703125 C 8.390625 -14.128906 8.039062 -13.375 8 -12.4375 Z M 8 -12.4375 "/></g></g></g><g fill="#ffffff" fill-opacity="1"><g transform="translate(99.581317, 71.404924)"><g><path d="M 12.5625 -14.4375 C 11.300781 -14.4375 10.21875 -13.972656 9.3125 -13.046875 C 8.40625 -12.117188 7.953125 -11 7.953125 -9.6875 C 7.953125 -8.351562 8.40625 -7.222656 9.3125 -6.296875 C 10.21875 -5.367188 11.300781 -4.90625 12.5625 -4.90625 C 13.15625 -4.90625 13.722656 -4.976562 14.265625 -5.125 C 14.804688 -5.28125 15.203125 -5.429688 15.453125 -5.578125 L 15.796875 -5.8125 L 18.0625 -1.171875 C 17.882812 -1.046875 17.640625 -0.890625 17.328125 -0.703125 C 17.015625 -0.515625 16.296875 -0.257812 15.171875 0.0625 C 14.054688 0.394531 12.859375 0.5625 11.578125 0.5625 C 8.734375 0.5625 6.234375 -0.429688 4.078125 -2.421875 C 1.929688 -4.421875 0.859375 -6.816406 0.859375 -9.609375 C 0.859375 -12.429688 1.929688 -14.851562 4.078125 -16.875 C 6.234375 -18.894531 8.734375 -19.90625 11.578125 -19.90625 C 12.859375 -19.90625 14.035156 -19.753906 15.109375 -19.453125 C 16.191406 -19.148438 16.960938 -18.847656 17.421875 -18.546875 L 18.0625 -18.09375 L 15.796875 -13.53125 C 14.960938 -14.132812 13.882812 -14.4375 12.5625 -14.4375 Z M 12.5625 -14.4375 "/></g></g></g><g fill="#ffffff" fill-opacity="1"><g transform="translate(118.094186, 71.404924)"><g><path d="M 2.265625 0 L 2.265625 -32.421875 L 8.9375 -32.421875 L 8.9375 -17.3125 L 9.015625 -17.3125 C 10.742188 -19.039062 12.585938 -19.90625 14.546875 -19.90625 C 15.503906 -19.90625 16.453125 -19.78125 17.390625 -19.53125 C 18.335938 -19.28125 19.242188 -18.890625 20.109375 -18.359375 C 20.984375 -17.828125 21.6875 -17.078125 22.21875 -16.109375 C 22.757812 -15.148438 23.03125 -14.03125 23.03125 -12.75 L 23.03125 0 L 16.359375 0 L 16.359375 -10.9375 C 16.359375 -11.9375 16.035156 -12.8125 15.390625 -13.5625 C 14.753906 -14.320312 13.921875 -14.703125 12.890625 -14.703125 C 11.890625 -14.703125 10.976562 -14.3125 10.15625 -13.53125 C 9.34375 -12.75 8.9375 -11.882812 8.9375 -10.9375 L 8.9375 0 Z M 2.265625 0 "/></g></g></g><g fill="#ffffff" fill-opacity="1"><g transform="translate(22.595438, 47.286433)"><g><path d="M 2.265625 -31.109375 L 11.265625 -31.109375 C 15.597656 -31.109375 19.296875 -29.628906 22.359375 -26.671875 C 25.421875 -23.722656 26.953125 -20.023438 26.953125 -15.578125 C 26.953125 -11.097656 25.425781 -7.378906 22.375 -4.421875 C 19.320312 -1.472656 15.617188 0 11.265625 0 L 2.265625 0 Z M 9.34375 -6.328125 L 10.4375 -6.328125 C 13.03125 -6.328125 15.148438 -7.203125 16.796875 -8.953125 C 18.441406 -10.703125 19.273438 -12.894531 19.296875 -15.53125 C 19.296875 -18.175781 18.472656 -20.375 16.828125 -22.125 C 15.179688 -23.882812 13.050781 -24.765625 10.4375 -24.765625 L 9.34375 -24.765625 Z M 9.34375 -6.328125 "/></g></g></g><g fill="#7447e1" fill-opacity="1"><g transform="translate(50.647976, 43.889432)"><g><path d="M 0.78125 -5.890625 C 0.78125 -6.554688 0.929688 -7.195312 1.234375 -7.8125 C 1.546875 -8.425781 1.984375 -8.988281 2.546875 -9.5 C 3.109375 -10.007812 3.675781 -10.453125 4.25 -10.828125 C 4.832031 -11.210938 5.5 -11.601562 6.25 -12 C 4.738281 -13.875 3.984375 -15.53125 3.984375 -16.96875 C 3.984375 -18.738281 4.601562 -20.148438 5.84375 -21.203125 C 7.082031 -22.265625 8.84375 -22.796875 11.125 -22.796875 C 13.226562 -22.796875 14.863281 -22.207031 16.03125 -21.03125 C 17.195312 -19.851562 17.78125 -18.5 17.78125 -16.96875 C 17.78125 -16.332031 17.625 -15.707031 17.3125 -15.09375 C 17.007812 -14.488281 16.644531 -13.972656 16.21875 -13.546875 C 15.789062 -13.128906 15.359375 -12.753906 14.921875 -12.421875 C 14.492188 -12.097656 14.125 -11.859375 13.8125 -11.703125 L 13.359375 -11.453125 L 16.34375 -8.359375 C 16.988281 -8.648438 18.082031 -9.59375 19.625 -11.1875 L 22.765625 -8.09375 C 21.753906 -6.925781 20.695312 -5.898438 19.59375 -5.015625 L 24.421875 0 L 18 0 L 15.765625 -2.3125 C 15.078125 -1.820312 14.570312 -1.472656 14.25 -1.265625 C 13.925781 -1.054688 13.441406 -0.785156 12.796875 -0.453125 C 12.148438 -0.128906 11.488281 0.09375 10.8125 0.21875 C 10.132812 0.34375 9.390625 0.40625 8.578125 0.40625 C 7.867188 0.40625 7.171875 0.34375 6.484375 0.21875 C 5.796875 0.101562 5.101562 -0.0976562 4.40625 -0.390625 C 3.707031 -0.691406 3.097656 -1.066406 2.578125 -1.515625 C 2.054688 -1.972656 1.625 -2.578125 1.28125 -3.328125 C 0.945312 -4.078125 0.78125 -4.929688 0.78125 -5.890625 Z M 11.125 -19.1875 C 10.476562 -19.1875 9.988281 -18.976562 9.65625 -18.5625 C 9.332031 -18.144531 9.171875 -17.613281 9.171875 -16.96875 C 9.171875 -16.582031 9.304688 -16.160156 9.578125 -15.703125 C 9.847656 -15.242188 10.117188 -14.878906 10.390625 -14.609375 L 10.796875 -14.21875 C 12.460938 -15.125 13.296875 -16.039062 13.296875 -16.96875 C 13.296875 -18.445312 12.570312 -19.1875 11.125 -19.1875 Z M 12.453125 -5.703125 L 8.90625 -9.203125 C 8.851562 -9.179688 8.769531 -9.144531 8.65625 -9.09375 C 8.550781 -9.050781 8.363281 -8.941406 8.09375 -8.765625 C 7.820312 -8.597656 7.582031 -8.410156 7.375 -8.203125 C 7.175781 -7.992188 6.988281 -7.71875 6.8125 -7.375 C 6.644531 -7.03125 6.5625 -6.671875 6.5625 -6.296875 C 6.5625 -5.703125 6.816406 -5.238281 7.328125 -4.90625 C 7.835938 -4.582031 8.425781 -4.421875 9.09375 -4.421875 C 9.632812 -4.421875 10.1875 -4.523438 10.75 -4.734375 C 11.3125 -4.941406 11.734375 -5.15625 12.015625 -5.375 Z M 12.453125 -5.703125 "/></g></g></g></svg>